<svg xmlns="http://www.w3.org/2000/svg" width="30" height="30"><g data-name="Layer 4" fill-rule="evenodd"><path d="M15.946 24.383l-15 5.623 7.679-7.675a1.848 1.848 0 00.762.17 1.87 1.87 0 10-1.87-1.87 1.848 1.848 0 00.17.762L.006 29.069l5.626-11 6.568-4.933 4.688 4.686z" fill="#96a1a6"/><path d="M5.632 14.073l6.564-.937 2.32 2.318-3.985 3.736a1.834 1.834 0 00-1.146-.429 1.87 1.87 0 00-1.87 1.87 1.848 1.848 0 00.17.762L.2 28.876l-.185.174z" fill="#bbc7cc"/><path d="M13.133 10.324L11.258 12.2l6.563 6.56 1.879-1.875z" fill="#333"/><path d="M29.722 8.239L21.753.274a.941.941 0 00-1.329 0l-7.968 8.9a.939.939 0 000 1.328l7.031 7.028a.939.939 0 001.329 0l8.907-7.965a.938.938 0 00-.001-1.326z" fill="#ff2443"/></g></svg>